<svg 
 xmlns="http://www.w3.org/2000/svg"
 xmlns:xlink="http://www.w3.org/1999/xlink"
 width="120px" height="120px">
<path fill-rule="evenodd"  fill="rgb(253, 96, 0)"
 d="M60.000,120.000 C26.865,120.000 -0.000,93.135 -0.000,60.000 C-0.000,26.862 26.865,0.000 60.000,0.000 C93.135,0.000 120.000,26.862 120.000,60.000 C120.000,93.135 93.135,120.000 60.000,120.000 ZM60.000,15.000 C35.149,15.000 15.000,35.149 15.000,60.000 C15.000,84.851 35.149,105.000 60.000,105.000 C84.851,105.000 105.000,84.851 105.000,60.000 C105.000,35.149 84.851,15.000 60.000,15.000 ZM45.000,37.500 L82.500,60.000 L45.000,82.500 L45.000,37.500 Z"/>
</svg>