<svg 
 xmlns="http://www.w3.org/2000/svg"
 xmlns:xlink="http://www.w3.org/1999/xlink"
 width="18px" height="19px">
<path fill-rule="evenodd"  fill="rgb(132, 127, 123)"
 d="M17.663,16.587 L14.170,13.095 C15.157,11.776 15.750,10.148 15.750,8.375 C15.750,4.026 12.224,0.500 7.875,0.500 C3.526,0.500 0.000,4.026 0.000,8.375 C0.000,12.725 3.526,16.250 7.875,16.250 C9.648,16.250 11.276,15.657 12.593,14.669 L16.087,18.163 C16.295,18.369 16.515,18.500 16.875,18.500 C17.497,18.500 18.000,17.997 18.000,17.375 C18.000,17.129 17.938,16.864 17.663,16.587 ZM2.250,8.375 C2.250,5.268 4.767,2.750 7.875,2.750 C10.982,2.750 13.500,5.268 13.500,8.375 C13.500,11.482 10.982,14.000 7.875,14.000 C4.767,14.000 2.250,11.482 2.250,8.375 Z"/>
</svg>